<?xml version="1.0" standalone="no"?>
<!DOCTYPE svg PUBLIC "-//W3C//DTD SVG 20010904//EN"
 "http://www.w3.org/TR/2001/REC-SVG-20010904/DTD/svg10.dtd">
<svg version="1.0" xmlns="http://www.w3.org/2000/svg"
 width="300.000000pt" height="289.000000pt" viewBox="0 0 300.000000 289.000000"
 preserveAspectRatio="xMidYMid meet">

<g transform="translate(0.000000,289.000000) scale(0.100000,-0.100000)"
fill="#000000" stroke="none">
<path d="M2330 1761 c0 -6 4 -13 10 -16 6 -3 7 1 4 9 -7 18 -14 21 -14 7z"/>
<path d="M2361 1674 c0 -11 3 -14 6 -6 3 7 2 16 -1 19 -3 4 -6 -2 -5 -13z"/>
<path d="M2817 1323 c-7 -56 -13 -88 -23 -123 -5 -20 -4 -23 7 -13 15 15 17
24 26 116 7 76 -1 92 -10 20z"/>
<path d="M2352 1255 c-2 -27 -5 -77 -7 -110 l-4 -60 10 55 c5 30 8 80 6 110
l-3 55 -2 -50z"/>
<path d="M2057 1201 c-4 -17 -3 -21 5 -13 5 5 8 16 6 23 -3 8 -7 3 -11 -10z"/>
<path d="M2030 1150 c-9 -6 -10 -10 -3 -10 6 0 15 5 18 10 8 12 4 12 -15 0z"/>
<path d="M2791 1150 c-12 -7 -12 -13 -3 -32 7 -13 10 -15 8 -6 -3 9 0 18 6 20
6 2 9 9 7 16 -3 7 -9 8 -18 2z"/>
<path d="M2100 1146 c0 -3 14 -13 31 -22 24 -12 30 -20 26 -36 -4 -15 -3 -18
5 -10 16 16 3 39 -31 57 -17 8 -31 13 -31 11z"/>
<path d="M2181 1124 c0 -11 3 -14 6 -6 3 7 2 16 -1 19 -3 4 -6 -2 -5 -13z"/>
<path d="M2451 1104 c0 -11 3 -14 6 -6 3 7 2 16 -1 19 -3 4 -6 -2 -5 -13z"/>
<path d="M1954 1100 c-12 -4 -24 -17 -26 -28 -5 -17 -2 -19 15 -13 11 4 24 17
28 29 5 12 7 22 6 21 -1 0 -12 -4 -23 -9z"/>
<path d="M2765 1079 c-5 -19 -8 -41 -7 -49 0 -8 -3 -17 -7 -20 -4 -3 -23 -41
-41 -85 -19 -44 -43 -95 -52 -113 -20 -37 -23 -56 -7 -47 15 10 90 167 118
247 16 46 20 72 13 83 -7 14 -10 11 -17 -16z"/>
<path d="M2315 1080 c3 -5 8 -10 11 -10 2 0 4 5 4 10 0 6 -5 10 -11 10 -5 0
-7 -4 -4 -10z"/>
<path d="M2457 1051 c-10 -45 -24 -61 -56 -61 -33 0 -51 17 -51 47 0 30 -15
30 -17 1 -1 -13 -9 -28 -18 -34 -10 -7 -12 -15 -6 -18 5 -4 13 0 18 8 7 13 13
12 41 -5 32 -21 44 -60 22 -74 -5 -3 -10 -11 -10 -16 0 -6 10 -3 22 5 12 9 32
16 43 15 20 0 20 0 0 -9 -18 -8 -17 -9 8 -9 49 -2 64 74 16 87 -11 3 -11 1 1
-8 13 -10 12 -11 -3 -6 -10 3 -21 6 -25 6 -3 0 2 6 12 13 13 9 17 23 14 52
l-3 40 -8 -34z"/>
<path d="M800 1060 c0 -5 5 -10 11 -10 5 0 7 5 4 10 -3 6 -8 10 -11 10 -2 0
-4 -4 -4 -10z"/>
<path d="M690 1010 c0 -5 5 -10 11 -10 5 0 7 5 4 10 -3 6 -8 10 -11 10 -2 0
-4 -4 -4 -10z"/>
<path d="M1371 995 c16 -16 34 -25 45 -23 14 3 8 10 -26 27 l-45 23 26 -27z"/>
<path d="M830 996 c0 -2 8 -10 18 -17 15 -13 16 -12 3 4 -13 16 -21 21 -21 13z"/>
<path d="M1796 985 c-11 -8 -15 -15 -9 -15 6 0 16 7 23 15 16 19 11 19 -14 0z"/>
<path d="M2252 965 c-13 -7 -20 -15 -15 -18 5 -3 20 3 33 14 28 21 17 24 -18
4z"/>
<path d="M2183 925 c0 -8 4 -15 9 -15 4 0 8 4 8 9 0 6 -4 12 -8 15 -5 3 -9 -1
-9 -9z"/>
<path d="M1007 894 c-12 -12 -8 -23 12 -34 14 -7 22 -7 27 2 4 7 3 8 -5 4 -6
-4 -14 1 -19 14 -4 11 -11 18 -15 14z"/>
<path d="M2127 881 c-40 -26 -47 -36 -12 -18 42 23 62 37 50 36 -5 0 -22 -8
-38 -18z"/>
<path d="M2324 864 c-18 -14 -18 -15 4 -4 12 6 22 13 22 15 0 8 -5 6 -26 -11z"/>
<path d="M1678 824 c4 -36 16 -44 26 -19 3 8 1 15 -4 15 -6 0 -10 6 -10 14 0
8 -4 17 -8 20 -4 2 -6 -11 -4 -30z"/>
<path d="M1070 846 c0 -2 7 -7 16 -10 8 -3 12 -2 9 4 -6 10 -25 14 -25 6z"/>
<path d="M2054 834 c-18 -14 -18 -15 4 -4 12 6 22 13 22 15 0 8 -5 6 -26 -11z"/>
<path d="M2245 822 c-69 -39 -124 -75 -102 -68 24 8 157 85 157 91 0 7 -1 7
-55 -23z"/>
<path d="M1110 826 c0 -3 14 -12 30 -21 17 -9 30 -13 30 -11 0 3 -13 12 -30
21 -16 9 -30 13 -30 11z"/>
<path d="M1644 784 c-18 -14 -18 -15 4 -4 12 6 22 13 22 15 0 8 -5 6 -26 -11z"/>
<path d="M1187 779 c7 -7 15 -10 18 -7 3 3 -2 9 -12 12 -14 6 -15 5 -6 -5z"/>
<path d="M1265 780 c-3 -5 -1 -10 4 -10 6 0 11 5 11 10 0 6 -2 10 -4 10 -3 0
-8 -4 -11 -10z"/>
<path d="M1872 732 c-45 -27 -88 -54 -95 -61 -12 -13 160 85 178 100 18 17 -1
8 -83 -39z"/>
<path d="M1245 750 c-8 -13 -1 -24 14 -19 6 3 7 10 2 18 -6 10 -10 10 -16 1z"/>
<path d="M2614 738 c-4 -13 -11 -26 -16 -29 -7 -4 -6 -9 1 -13 6 -4 13 4 17
19 3 13 10 22 15 19 5 -3 6 2 3 10 -8 21 -11 20 -20 -6z"/>
<path d="M2034 694 c-18 -14 -18 -15 4 -4 12 6 22 13 22 15 0 8 -5 6 -26 -11z"/>
<path d="M1125 687 c40 -28 115 -69 115 -63 0 6 -117 76 -128 76 -3 0 2 -6 13
-13z"/>
<path d="M1350 686 c0 -2 7 -7 16 -10 8 -3 12 -2 9 4 -6 10 -25 14 -25 6z"/>
<path d="M2534 633 c-21 -27 -41 -50 -45 -53 -4 -3 -23 -25 -43 -48 -20 -24
-36 -40 -36 -35 0 4 -6 1 -13 -8 -22 -28 -141 -115 -212 -153 -38 -22 -77 -45
-85 -52 -15 -12 -19 -14 -40 -14 -5 0 -10 -5 -10 -11 0 -6 5 -7 13 -2 6 4 17
8 22 9 28 5 65 25 65 34 0 6 4 9 9 6 5 -3 27 8 50 24 22 17 41 27 41 24 0 -6
56 33 90 63 134 116 200 182 200 201 0 7 4 10 10 7 6 -4 7 1 3 11 -5 13 -3 15
8 9 8 -4 11 -5 7 0 -4 4 -3 14 3 22 6 7 9 13 6 13 -2 0 -22 -21 -43 -47z"/>
<path d="M1960 655 c-14 -8 -20 -14 -14 -15 5 0 19 7 30 15 24 18 16 19 -16 0z"/>
<path d="M1655 615 c-51 -31 -75 -32 -76 -2 -1 20 -2 20 -6 2 -3 -11 -9 -25
-13 -30 -5 -6 -2 -19 6 -29 8 -11 14 -15 14 -8 0 6 28 27 63 48 69 40 75 44
61 44 -5 0 -27 -12 -49 -25z"/>
<path d="M1465 620 c3 -5 11 -10 16 -10 6 0 7 5 4 10 -3 6 -11 10 -16 10 -6 0
-7 -4 -4 -10z"/>
<path d="M1887 614 c-16 -9 -27 -18 -24 -20 3 -3 20 4 38 15 39 24 28 28 -14
5z"/>
<path d="M1720 519 c-47 -27 -90 -49 -97 -49 -6 0 -21 11 -31 25 -19 24 -21
25 -27 6 -10 -33 -40 -35 -90 -6 -25 15 -45 24 -45 21 0 -3 20 -17 45 -32 27
-15 45 -33 45 -44 0 -10 8 -20 18 -23 9 -2 26 -8 36 -13 11 -4 17 -4 14 2 -3
5 0 15 8 22 12 11 14 9 14 -8 0 -26 -27 -37 -51 -21 -11 6 -19 7 -19 1 0 -16
49 -23 65 -10 8 7 15 23 15 35 0 17 18 33 83 70 98 58 125 75 112 74 -6 -1
-48 -23 -95 -50z m-133 -85 c-3 -3 -12 -4 -19 -1 -8 3 -5 6 6 6 11 1 17 -2 13
-5z"/>
<path d="M2006 245 c-8 -9 -18 -15 -21 -14 -15 4 -185 -45 -185 -53 0 -5 5 -6
10 -3 6 4 27 9 47 11 20 3 41 8 47 11 6 4 20 9 31 10 35 5 105 34 105 44 0 14
-17 11 -34 -6z"/>
</g>
</svg>
